HIERARCHY
ROOT Root
{
  OFFSET 0.0 0.0 0.0
  CHANNELS 6 Xposition Yposition Zposition Zrotation Yrotation Xrotation
  JOINT Hips
  {
    OFFSET 0.0 100.0 0.0
    CHANNELS 6 Xposition Yposition Zposition Zrotation Yrotation Xrotation
    JOINT Spine1
    {
      OFFSET -0.013727 5.003763 -0.053727
      CHANNELS 3 Zrotation Yrotation Xrotation
      JOINT Spine2
      {
        OFFSET -0.0 7.125301 -0.029825
        CHANNELS 3 Zrotation Yrotation Xrotation
        JOINT Chest
        {
          OFFSET -1e-06 7.550063 -0.815971
          CHANNELS 3 Zrotation Yrotation Xrotation
          JOINT Neck1
          {
            OFFSET -0.181677 26.311295 -0.553348
            CHANNELS 3 Zrotation Yrotation Xrotation
            JOINT Neck2
            {
              OFFSET -3e-06 7.709397 2.302585
              CHANNELS 3 Zrotation Yrotation Xrotation
              JOINT Head
              {
                OFFSET -5e-06 6.128916 1.953709
                CHANNELS 3 Zrotation Yrotation Xrotation
                JOINT HeadEnd
                {
                  OFFSET 0.003598 16.065403 -1.835379
                  CHANNELS 3 Zrotation Yrotation Xrotation
                }
                JOINT Jaw
                {
                  OFFSET 0.002637 0.475592 3.094941
                  CHANNELS 3 Zrotation Yrotation Xrotation
                }
                JOINT LeftEye
                {
                  OFFSET 3.206381 5.380205 7.586883
                  CHANNELS 3 Zrotation Yrotation Xrotation
                }
                JOINT RightEye
                {
                  OFFSET -3.22244 5.361869 7.558234
                  CHANNELS 3 Zrotation Yrotation Xrotation
                }
              }
            }
          }
          JOINT LeftShoulder
          {
            OFFSET 1.621652 23.237164 5.113413
            CHANNELS 3 Zrotation Yrotation Xrotation
            JOINT LeftArm
            {
              OFFSET 14.919846 2e-06 -5.502326
              CHANNELS 3 Zrotation Yrotation Xrotation
              JOINT LeftForeArm
              {
                OFFSET 28.739307 0.0 -0.002588
                CHANNELS 3 Zrotation Yrotation Xrotation
                JOINT LeftHand
                {
                  OFFSET 27.093981 -1e-06 0.002609
                  CHANNELS 3 Zrotation Yrotation Xrotation
                  JOINT LeftHandThumb1
                  {
                    OFFSET 2.276482 -1.392045 3.191413
                    CHANNELS 3 Zrotation Yrotation Xrotation
                    JOINT LeftHandThumb2
                    {
                      OFFSET 4.012836 -1.828127 1.641654
                      CHANNELS 3 Zrotation Yrotation Xrotation
                      JOINT LeftHandThumb3
                      {
                        OFFSET 2.798515 0.0 -3e-06
                        CHANNELS 3 Zrotation Yrotation Xrotation
                        JOINT LeftHandThumbEnd
                        {
                          OFFSET 3.180793 -4e-06 4e-06
                          CHANNELS 3 Zrotation Yrotation Xrotation
                        }
                      }
                    }
                  }
                  JOINT LeftHandIndex1
                  {
                    OFFSET 3.247555 -0.531998 2.296169
                    CHANNELS 3 Zrotation Yrotation Xrotation
                    JOINT LeftHandIndex2
                    {
                      OFFSET 6.364578 0.01206 0.1786
                      CHANNELS 3 Zrotation Yrotation Xrotation
                      JOINT LeftHandIndex3
                      {
                        OFFSET 3.662364 0.0 0.0
                        CHANNELS 3 Zrotation Yrotation Xrotation
                        JOINT LeftHandIndex4
                        {
                          OFFSET 2.329242 4e-06 4e-06
                          CHANNELS 3 Zrotation Yrotation Xrotation
                          JOINT LeftHandIndexEnd
                          {
                            OFFSET 2.759615 -0.180537 -0.113024
                            CHANNELS 3 Zrotation Yrotation Xrotation
                          }
                        }
                      }
                    }
                  }
                  JOINT LeftHandMiddle1
                  {
                    OFFSET 3.163495 0.240981 1.000332
                    CHANNELS 3 Zrotation Yrotation Xrotation
                    JOINT LeftHandMiddle2
                    {
                      OFFSET 6.19078 -0.259278 -1.002548
                      CHANNELS 3 Zrotation Yrotation Xrotation
                      JOINT LeftHandMiddle3
                      {
                        OFFSET 4.35652 -4e-06 -1e-06
                        CHANNELS 3 Zrotation Yrotation Xrotation
                        JOINT LeftHandMiddle4
                        {
                          OFFSET 2.996877 -8e-06 0.0
                          CHANNELS 3 Zrotation Yrotation Xrotation
                          JOINT LeftHandMiddleEnd
                          {
                            OFFSET 2.304287 -0.294569 -0.031741
                            CHANNELS 3 Zrotation Yrotation Xrotation
                          }
                        }
                      }
                    }
                  }
                  JOINT LeftHandRing1
                  {
                    OFFSET 2.882643 -0.053652 -0.322543
                    CHANNELS 3 Zrotation Yrotation Xrotation
                    JOINT LeftHandRing2
                    {
                      OFFSET 5.854541 -0.486202 -1.373841
                      CHANNELS 3 Zrotation Yrotation Xrotation
                      JOINT LeftHandRing3
                      {
                        OFFSET 4.350578 0.0 3e-06
                        CHANNELS 3 Zrotation Yrotation Xrotation
                        JOINT LeftHandRing4
                        {
                          OFFSET 2.651321 7e-06 2e-06
                          CHANNELS 3 Zrotation Yrotation Xrotation
                          JOINT LeftHandRingEnd
                          {
                            OFFSET 1.936105 0.077687 -7.1e-05
                            CHANNELS 3 Zrotation Yrotation Xrotation
                          }
                        }
                      }
                    }
                  }
                  JOINT LeftHandPinky1
                  {
                    OFFSET 2.8655 -0.310005 -1.600378
                    CHANNELS 3 Zrotation Yrotation Xrotation
                    JOINT LeftHandPinky2
                    {
                      OFFSET 5.087849 -1.331141 -1.77123
                      CHANNELS 3 Zrotation Yrotation Xrotation
                      JOINT LeftHandPinky3
                      {
                        OFFSET 3.070974 4e-06 0.0
                        CHANNELS 3 Zrotation Yrotation Xrotation
                        JOINT LeftHandPinky4
                        {
                          OFFSET 1.549672 0.0 1e-06
                          CHANNELS 3 Zrotation Yrotation Xrotation
                          JOINT LeftHandPinkyEnd
                          {
                            OFFSET 1.944893 -0.157802 0.057219
                            CHANNELS 3 Zrotation Yrotation Xrotation
                          }
                        }
                      }
                    }
                  }
                }
              }
            }
          }
          JOINT RightShoulder
          {
            OFFSET -1.380118 23.180309 5.214158
            CHANNELS 3 Zrotation Yrotation Xrotation
            JOINT RightArm
            {
              OFFSET -15.037196 1.2e-05 -5.545604
              CHANNELS 3 Zrotation Yrotation Xrotation
              JOINT RightForeArm
              {
                OFFSET -28.736639 2e-06 -0.002597
                CHANNELS 3 Zrotation Yrotation Xrotation
                JOINT RightHand
                {
                  OFFSET -27.133619 -0.0 0.002613
                  CHANNELS 3 Zrotation Yrotation Xrotation
                  JOINT RightHandThumb1
                  {
                    OFFSET -2.274032 -1.383988 3.163127
                    CHANNELS 3 Zrotation Yrotation Xrotation
                    JOINT RightHandThumb2
                    {
                      OFFSET -4.011429 -1.827466 1.640914
                      CHANNELS 3 Zrotation Yrotation Xrotation
                      JOINT RightHandThumb3
                      {
                        OFFSET -2.794935 -4e-06 -3e-06
                        CHANNELS 3 Zrotation Yrotation Xrotation
                        JOINT RightHandThumbEnd
                        {
                          OFFSET -3.183852 4e-06 1e-06
                          CHANNELS 3 Zrotation Yrotation Xrotation
                        }
                      }
                    }
                  }
                  JOINT RightHandIndex1
                  {
                    OFFSET -3.253266 -0.520057 2.282866
                    CHANNELS 3 Zrotation Yrotation Xrotation
                    JOINT RightHandIndex2
                    {
                      OFFSET -6.341917 0.012471 0.178266
                      CHANNELS 3 Zrotation Yrotation Xrotation
                      JOINT RightHandIndex3
                      {
                        OFFSET -3.654871 -8e-06 -0.0
                        CHANNELS 3 Zrotation Yrotation Xrotation
                        JOINT RightHandIndex4
                        {
                          OFFSET -2.327586 0.0 1e-06
                          CHANNELS 3 Zrotation Yrotation Xrotation
                          JOINT RightHandIndexEnd
                          {
                            OFFSET -2.76179 -0.180656 -0.113078
                            CHANNELS 3 Zrotation Yrotation Xrotation
                          }
                        }
                      }
                    }
                  }
                  JOINT RightHandMiddle1
                  {
                    OFFSET -3.168106 0.246593 1.00103
                    CHANNELS 3 Zrotation Yrotation Xrotation
                    JOINT RightHandMiddle2
                    {
                      OFFSET -6.180828 -0.258836 -1.000895
                      CHANNELS 3 Zrotation Yrotation Xrotation
                      JOINT RightHandMiddle3
                      {
                        OFFSET -4.348901 0.0 -0.0
                        CHANNELS 3 Zrotation Yrotation Xrotation
                        JOINT RightHandMiddle4
                        {
                          OFFSET -3.00024 -4e-06 -2e-06
                          CHANNELS 3 Zrotation Yrotation Xrotation
                          JOINT RightHandMiddleEnd
                          {
                            OFFSET -2.30252 -0.29437 -0.031706
                            CHANNELS 3 Zrotation Yrotation Xrotation
                          }
                        }
                      }
                    }
                  }
                  JOINT RightHandRing1
                  {
                    OFFSET -2.88569 -0.067952 -0.308858
                    CHANNELS 3 Zrotation Yrotation Xrotation
                    JOINT RightHandRing2
                    {
                      OFFSET -5.854198 -0.48613 -1.373731
                      CHANNELS 3 Zrotation Yrotation Xrotation
                      JOINT RightHandRing3
                      {
                        OFFSET -4.33881 -4e-06 -0.0
                        CHANNELS 3 Zrotation Yrotation Xrotation
                        JOINT RightHandRing4
                        {
                          OFFSET -2.654903 -4e-06 4e-06
                          CHANNELS 3 Zrotation Yrotation Xrotation
                          JOINT RightHandRingEnd
                          {
                            OFFSET -1.933568 0.077527 -5.2e-05
                            CHANNELS 3 Zrotation Yrotation Xrotation
                          }
                        }
                      }
                    }
                  }
                  JOINT RightHandPinky1
                  {
                    OFFSET -2.866425 -0.342796 -1.584145
                    CHANNELS 3 Zrotation Yrotation Xrotation
                    JOINT RightHandPinky2
                    {
                      OFFSET -5.091371 -1.332055 -1.772385
                      CHANNELS 3 Zrotation Yrotation Xrotation
                      JOINT RightHandPinky3
                      {
                        OFFSET -3.062664 -4e-06 1e-06
                        CHANNELS 3 Zrotation Yrotation Xrotation
                        JOINT RightHandPinky4
                        {
                          OFFSET -1.546529 4e-06 -2e-06
                          CHANNELS 3 Zrotation Yrotation Xrotation
                          JOINT RightHandPinkyEnd
                          {
                            OFFSET -1.945119 -0.157718 0.057211
                            CHANNELS 3 Zrotation Yrotation Xrotation
                          }
                        }
                      }
                    }
                  }
                }
              }
            }
          }
        }
      }
    }
    JOINT LeftLeg
    {
      OFFSET 10.043214 -8.434526 2.595655
      CHANNELS 3 Zrotation Yrotation Xrotation
      JOINT LeftShin
      {
        OFFSET -1e-06 -43.221752 -0.802913
        CHANNELS 3 Zrotation Yrotation Xrotation
        JOINT LeftFoot
        {
          OFFSET 1e-06 -42.155094 -3.481523
          CHANNELS 3 Zrotation Yrotation Xrotation
          JOINT LeftToeBase
          {
            OFFSET 0.0 -5.059472 13.231529
            CHANNELS 3 Zrotation Yrotation Xrotation
            JOINT LeftToeEnd
            {
              OFFSET -0.009607 -1.647619 6.513017
              CHANNELS 3 Zrotation Yrotation Xrotation
            }
          }
        }
      }
    }
    JOINT RightLeg
    {
      OFFSET -10.047278 -8.29526 2.620317
      CHANNELS 3 Zrotation Yrotation Xrotation
      JOINT RightShin
      {
        OFFSET 1e-06 -43.362206 -0.805556
        CHANNELS 3 Zrotation Yrotation Xrotation
        JOINT RightFoot
        {
          OFFSET 2e-06 -42.117393 -3.478398
          CHANNELS 3 Zrotation Yrotation Xrotation
          JOINT RightToeBase
          {
            OFFSET -0.0 -5.079609 13.284196
            CHANNELS 3 Zrotation Yrotation Xrotation
            JOINT RightToeEnd
            {
              OFFSET 0.009532 -1.634378 6.460591
              CHANNELS 3 Zrotation Yrotation Xrotation
            }
          }
        }
      }
    }
  }
}
MOTION
Frames: 4
Frame Time: 0.03333333333333333
0.0 0.0 0.0 0.0 -0.0 0.0 -1.26333 97.171104 -3.843483 5.544981 20.77475 -6.090048 -1.352933 0.499875 4.835471 -0.614636 1.915114 -3.020958 -1.564532 1.500544 20.942699 -5.82974 5.052528 2.220715 2.135417 9.913027 -3.281987 -2.855071 12.852755 -14.418588 7.7e-05 -2.1e-05 6e-06 0.01818 -0.173324 0.018942 0.756189 -3.935034 -10.623919 -0.724218 3.61395 -10.581625 -12.778589 3.124609 15.635191 -56.984852 -1.204143 12.861273 0.9463 -65.599648 -0.729169 25.656521 -10.252095 17.750711 -5.882107 9.861287 0.702591 -10.936877 -0.360575 7.156209 2e-06 8.774831 1e-06 -16.104902 18.296522 6.102878 -1.844032 2.498505 -2.50728 -10.163604 4.678944 4.621109 -20.976036 -7e-06 -0.0 -21.226301 2.451692 -3.594006 0.0 -6e-06 -1e-06 -1.362683 2.240798 -0.746325 -21.334927 0.584907 3.008321 -13.821219 -6e-06 -0.0 -23.887182 -0.249083 -0.839484 -60.299389 2.243202 -0.598196 -0.294024 1.679688 0.833257 -14.218214 0.09321 1.300579 -34.212067 -0.287572 0.967166 -20.033226 0.964532 1.212845 -1e-06 0.0 0.0 -3.440391 0.788232 0.501654 -15.928192 -3.167311 2.999705 -6.338829 -2e-06 1e-06 -18.123457 3.64818 -4.905675 -4e-06 -0.0 -4e-06 11.151476 12.872052 17.568222 51.55468 8.637857 12.494668 0.070855 48.024868 0.329304 0.162482 -0.705842 6.39572 2.243541 -5.255035 -3.180157 14.28289 -0.826592 6.952502 -3e-06 -12.690603 -0.0 15.930173 -17.87232 2.591384 1.665667 -1.955921 -2.878298 4.727799 -4.170586 4.993923 11.020525 3e-06 -1e-06 12.109051 -3.735714 -2.866784 0.0 0.0 0.0 1.291986 -1.92855 -1.498088 14.800131 0.56747 3.865608 14.242571 -1.341735 -6.660656 19.631969 0.143929 -0.648243 49.716564 -0.593481 -6.174232 0.353028 -1.51115 -0.03194 20.222788 3.684311 2.31663 18.78727 6e-06 -0.0 10.751626 -0.479867 1.397906 -1e-06 -0.0 0.0 3.273806 0.305947 -0.58011 21.486813 11.83038 2.266133 8.162927 2e-06 -0.0 18.39908 -3.798982 -4.940575 4e-06 -0.0 -1e-06 7.012624 20.714767 -1.582051 -0.050867 -0.251699 17.797775 -10.476332 11.188337 -4.644855 1.602027 -2.181765 0.038302 -0.0 0.0 2e-06 -19.697189 -6.87812 -3.077931 0.078988 0.287581 21.376274 12.59032 2.709618 -8.273983 -1.438401 1.102605 0.294708 -0.0 -0.0 -1e-06 
0.0 0.0 0.0 0.0 -0.0 0.0 -0.879097 97.152832 -4.075929 5.378482 18.748545 -6.258253 -1.40988 0.515245 4.786126 -0.626312 1.743509 -3.030936 -1.432519 1.208706 20.879862 -4.640657 4.611141 2.152563 1.916269 9.188639 -3.31519 -2.968914 11.94278 -14.589151 7.7e-05 -2.2e-05 6e-06 0.018998 -0.1603 0.020333 0.762613 -3.932009 -10.613485 -0.728668 3.636219 -10.576902 -12.18296 2.838497 15.728063 -57.168652 -1.673694 13.377394 0.70254 -65.186508 -0.500859 25.293583 -10.288755 17.701584 -5.882111 9.861292 0.702592 -10.936878 -0.360573 7.156209 1e-06 8.774831 2e-06 -16.050768 18.324938 6.183052 -1.844033 2.498505 -2.507279 -10.163607 4.678951 4.621112 -20.976036 0.0 1e-06 -21.226301 2.451701 -3.594006 -0.0 -6e-06 1e-06 -1.362681 2.240801 -0.746324 -21.334929 0.584912 3.008322 -13.821221 -1e-06 2e-06 -23.887182 -0.249078 -0.839487 -60.286453 2.277284 -0.565366 -0.294025 1.679688 0.833256 -14.218218 0.093217 1.30058 -34.21207 -0.287559 0.967167 -20.033224 0.964537 1.212843 0.0 0.0 1e-06 -3.440391 0.788234 0.501655 -15.928196 -3.167307 2.999707 -6.338831 -3e-06 0.0 -18.123461 3.648187 -4.905675 -4e-06 -0.0 -3e-06 11.410539 12.742145 17.433897 50.961079 8.234402 13.168726 0.086057 47.658451 0.339519 0.394923 -0.792281 6.509034 2.243544 -5.255039 -3.18016 14.2829 -0.826597 6.952503 -2e-06 -12.690612 2e-06 15.901198 -17.799631 2.629055 1.665669 -1.955923 -2.8783 4.727803 -4.170592 4.993926 11.020536 1e-06 -2e-06 12.109062 -3.735718 -2.866787 0.0 0.0 0.0 1.291987 -1.92855 -1.498089 14.800139 0.567467 3.865607 14.242584 -1.341737 -6.660662 19.631983 0.143926 -0.648247 49.70129 -0.579636 -6.185006 0.353029 -1.511151 -0.031941 20.222805 3.684311 2.316628 18.787287 5e-06 -3e-06 10.751636 -0.479869 1.397904 0.0 -1e-06 0.0 3.273809 0.305948 -0.580112 21.48683 11.830383 2.266129 8.162934 1e-06 -3e-06 18.399097 -3.798988 -4.940582 3e-06 -0.0 -1e-06 7.201155 21.373718 -1.299697 -0.04306 -0.248889 18.330641 -10.618238 12.1723 -5.371684 1.604387 -2.202635 0.032142 -0.0 -1e-06 2e-06 -19.549543 -5.949733 -3.782988 0.087725 0.306034 21.114208 12.647857 3.524437 -7.682207 -1.439164 1.091172 0.189249 -0.0 -0.0 -1e-06 
0.0 0.0 0.0 0.0 -0.0 0.0 -0.510773 97.127647 -4.282608 5.2007 16.826996 -6.433743 -1.443498 0.54046 4.730911 -0.634075 1.563976 -3.037654 -1.298985 0.919402 20.836712 -3.442417 4.189695 2.158816 1.676221 8.439632 -3.347947 -3.03186 10.949147 -14.733544 7.7e-05 -2.5e-05 6e-06 0.018629 -0.14297 0.018571 0.766722 -3.922775 -10.602736 -0.733292 3.66075 -10.571835 -11.621324 2.568425 15.79287 -57.387177 -2.136784 13.946889 0.535452 -64.734001 -0.356598 24.942551 -10.258665 17.417324 -5.882114 9.861298 0.702591 -10.936887 -0.360573 7.156214 1e-06 8.774836 0.0 -16.000011 18.369493 6.255423 -1.844033 2.498507 -2.50728 -10.163612 4.678952 4.621115 -20.976051 -5e-06 1e-06 -21.226316 2.451698 -3.594007 1e-06 -6e-06 1e-06 -1.362682 2.2408 -0.746324 -21.334946 0.584912 3.008323 -13.821235 -2e-06 0.0 -23.887203 -0.249082 -0.839485 -60.304493 2.307736 -0.54201 -0.294025 1.679691 0.833257 -14.218226 0.093216 1.300581 -34.212097 -0.287564 0.967167 -20.033243 0.964536 1.212843 1e-06 -0.0 2e-06 -3.440393 0.788234 0.501655 -15.928206 -3.167311 2.999709 -6.338836 -0.0 -0.0 -18.123474 3.648187 -4.905675 -4e-06 -0.0 -3e-06 11.649787 12.603329 17.33614 50.384933 7.878352 13.770452 0.031775 47.347504 0.298159 0.704226 -0.799401 6.604293 2.243545 -5.255044 -3.180161 14.282904 -0.826597 6.952508 -2e-06 -12.690619 2e-06 15.881238 -17.730381 2.664053 1.665668 -1.955923 -2.878302 4.727802 -4.170592 4.993928 11.020536 2e-06 -1e-06 12.109061 -3.735721 -2.866787 0.0 -0.0 -0.0 1.291987 -1.928552 -1.498091 14.800142 0.567468 3.865612 14.242585 -1.341737 -6.660664 19.631985 0.143926 -0.648246 49.678783 -0.567278 -6.200119 0.353029 -1.511152 -0.031939 20.222805 3.684313 2.316631 18.787289 4e-06 -1e-06 10.751637 -0.47987 1.397907 -1e-06 -1e-06 0.0 3.273809 0.305947 -0.580111 21.486834 11.83039 2.266135 8.162937 -0.0 -0.0 18.399103 -3.79899 -4.940581 4e-06 -1e-06 -1e-06 7.405008 22.017513 -1.037244 -0.037374 -0.249818 18.874672 -10.752906 13.105044 -6.087035 1.60608 -2.230218 0.047298 0.0 -0.0 2e-06 -19.48782 -5.040721 -4.46243 0.094846 0.31785 20.845413 12.8541 4.291475 -6.899078 -1.437261 1.073719 0.078506 -0.0 -0.0 -1e-06 
0.0 0.0 0.0 0.0 -0.0 0.0 -0.167455 97.090851 -4.455438 5.009988 15.033475 -6.608704 -1.463753 0.562782 4.660105 -0.643009 1.392974 -3.051715 -1.153954 0.63511 20.825127 -2.23163 3.746155 2.27071 1.410467 7.630009 -3.384544 -3.032126 9.86988 -14.893379 7.7e-05 -2.4e-05 6e-06 0.017492 -0.122388 0.017209 0.768453 -3.909621 -10.588515 -0.737105 3.688123 -10.563139 -11.106758 2.294064 15.829533 -57.639004 -2.577872 14.574767 0.467735 -64.283478 -0.264021 24.638489 -10.215033 16.962345 -5.882105 9.861283 0.70259 -10.936873 -0.360575 7.156206 1e-06 8.774826 -1e-06 -15.924716 18.403824 6.332395 -1.844032 2.498504 -2.507278 -10.163601 4.678942 4.621109 -20.976023 -6e-06 2e-06 -21.226288 2.451695 -3.594 1e-06 -6e-06 -1e-06 -1.362682 2.240798 -0.746324 -21.334913 0.584908 3.008321 -13.821216 -3e-06 0.0 -23.887173 -0.249082 -0.839484 -60.311043 2.338818 -0.528178 -0.294025 1.679689 0.833255 -14.218209 0.093214 1.300581 -34.212051 -0.287567 0.967172 -20.033215 0.964535 1.212846 1e-06 -1e-06 1e-06 -3.440388 0.788232 0.501655 -15.928189 -3.167311 2.999707 -6.338828 1e-06 1e-06 -18.123447 3.648182 -4.905672 -3e-06 -0.0 -2e-06 11.882347 12.427965 17.236982 49.930832 7.540806 14.131077 -0.087489 47.060078 0.212882 1.010372 -0.750173 6.649003 2.243542 -5.255037 -3.18016 14.282894 -0.826596 6.952504 -2e-06 -12.690609 2e-06 15.880568 -17.668716 2.679173 1.665666 -1.955921 -2.878299 4.727799 -4.17059 4.993925 11.020528 2e-06 2e-06 12.109055 -3.735718 -2.866783 -0.0 0.0 0.0 1.291986 -1.92855 -1.498089 14.800132 0.567468 3.865609 14.242573 -1.341737 -6.660657 19.631969 0.143926 -0.648243 49.662483 -0.550735 -6.22202 0.35303 -1.511151 -0.031941 20.222797 3.68431 2.316631 18.787279 4e-06 2e-06 10.751631 -0.47987 1.397907 -0.0 -0.0 0.0 3.273807 0.305947 -0.580112 21.486816 11.830377 2.266134 8.162929 0.0 0.0 18.399088 -3.798988 -4.940576 4e-06 -1e-06 -0.0 7.545744 22.673841 -0.915235 -0.03165 -0.248377 19.457907 -10.797795 13.981122 -6.807113 1.608298 -2.255522 0.056233 -0.0 -1e-06 2e-06 -19.322807 -4.211628 -5.073752 0.098656 0.326912 20.620102 12.990877 5.014025 -6.312763 -1.432562 1.054856 -0.017151 -0.0 0.0 -1e-06 
